<?xml version="1.0" encoding="utf-8"?>
<svg viewBox="47.674 100 149.71 149.564" xmlns="http://www.w3.org/2000/svg">
  <path class="b" d="M 122.505 119.471 C 127.791 119.471 132.074 115.188 132.074 109.902 C 132.074 104.617 127.791 100.333 122.505 100.333 C 117.22 100.333 112.936 104.617 112.936 109.902 C 112.936 115.188 117.22 119.471 122.505 119.471" style="fill: rgb(61, 88, 118);"/>
  <path class="b" d="M 122.505 230.066 C 117.22 230.066 112.936 234.349 112.936 239.635 C 112.936 244.92 117.22 249.204 122.505 249.204 C 127.791 249.204 132.074 244.92 132.074 239.635 C 132.074 234.349 127.791 230.066 122.505 230.066" style="fill: rgb(61, 88, 118);"/>
  <path class="b" d="M 187.377 165.199 C 182.091 165.199 177.808 169.483 177.808 174.768 C 177.808 180.054 182.091 184.337 187.377 184.337 C 192.662 184.337 196.946 180.054 196.946 174.768 C 196.946 169.483 192.662 165.199 187.377 165.199" style="fill: rgb(61, 88, 118);"/>
  <path class="b" d="M 67.208 174.768 C 67.208 169.483 62.925 165.199 57.639 165.199 C 52.354 165.199 48.07 169.483 48.07 174.768 C 48.07 180.054 52.354 184.337 57.639 184.337 C 62.925 184.337 67.208 180.054 67.208 174.768" style="fill: rgb(61, 88, 118);"/>
  <path class="b" d="M 166.955 174.768 C 175.656 169.019 181.41 159.159 181.41 147.976 C 181.41 142.681 180.107 137.696 177.822 133.294 L 177.803 133.304 C 177.418 132.48 176.594 131.903 175.621 131.903 C 174.279 131.903 173.193 132.988 173.193 134.331 C 173.193 134.528 173.262 134.706 173.307 134.888 L 173.248 134.908 C 174.422 141.077 173.638 148.627 168.574 157.387 C 165.075 164.518 157.761 169.448 149.303 169.448 L 127.83 169.448 L 127.83 147.971 C 127.83 136.132 137.464 126.499 149.303 126.499 C 156.434 126.499 162.741 130.003 166.645 135.367 L 166.684 135.318 C 167.123 135.934 167.809 136.359 168.628 136.359 C 169.971 136.359 171.056 135.273 171.056 133.931 C 171.056 133.729 170.987 133.551 170.943 133.368 L 170.982 133.349 C 170.953 133.225 170.903 133.121 170.869 133.003 C 170.869 132.993 170.864 132.988 170.859 132.978 C 169.709 128.927 167.706 125.62 165.707 123.143 C 165.524 122.94 165.352 122.738 165.129 122.486 C 161.27 118.05 155.324 116.545 152.94 116.1 C 151.746 115.957 150.537 115.864 149.303 115.864 C 138.12 115.864 128.26 121.618 122.51 130.318 C 116.761 121.618 106.901 115.864 95.718 115.864 C 94.484 115.864 93.275 115.962 92.081 116.1 C 89.702 116.545 83.75 118.05 79.896 122.486 C 79.674 122.743 79.496 122.94 79.319 123.143 C 77.32 125.615 75.316 128.927 74.167 132.978 C 74.167 132.988 74.162 132.998 74.157 133.003 C 74.122 133.121 74.073 133.225 74.043 133.349 L 74.083 133.368 C 74.038 133.551 73.969 133.733 73.969 133.931 C 73.969 135.273 75.055 136.359 76.397 136.359 C 77.211 136.359 77.897 135.93 78.337 135.318 L 78.376 135.367 C 82.275 130.003 88.587 126.499 95.718 126.499 C 107.557 126.499 117.195 136.132 117.195 147.971 L 117.195 169.448 L 95.718 169.448 C 87.254 169.448 79.941 164.513 76.447 157.387 C 71.388 148.627 70.599 141.072 71.773 134.908 L 71.714 134.888 C 71.758 134.706 71.827 134.533 71.827 134.331 C 71.827 132.988 70.742 131.903 69.399 131.903 C 68.427 131.903 67.608 132.48 67.218 133.304 L 67.198 133.294 C 64.918 137.696 63.61 142.681 63.61 147.976 C 63.61 159.159 69.365 169.019 78.065 174.768 C 69.365 180.518 63.61 190.373 63.61 201.561 C 63.61 206.856 64.918 211.841 67.198 216.243 L 67.218 216.243 C 67.608 217.062 68.432 217.639 69.399 217.639 C 70.742 217.639 71.827 216.554 71.827 215.211 C 71.827 215.014 71.758 214.836 71.714 214.654 L 71.773 214.634 C 70.599 208.465 71.388 200.909 76.447 192.155 C 79.946 185.023 87.259 180.093 95.718 180.093 L 117.195 180.093 L 117.195 201.566 C 117.195 213.41 107.562 223.043 95.718 223.043 C 88.587 223.043 82.28 219.539 78.376 214.175 L 78.337 214.224 C 77.897 213.607 77.211 213.178 76.397 213.178 C 75.055 213.178 73.969 214.269 73.969 215.606 C 73.969 215.808 74.038 215.981 74.083 216.169 L 74.043 216.188 C 74.073 216.307 74.122 216.415 74.157 216.534 C 74.157 216.544 74.162 216.549 74.167 216.558 C 75.316 220.61 77.32 223.917 79.319 226.389 C 79.501 226.596 79.674 226.794 79.896 227.045 C 83.75 231.487 89.702 232.992 92.081 233.431 C 93.275 233.575 94.484 233.673 95.718 233.673 C 106.901 233.673 116.761 227.914 122.51 219.218 C 128.26 227.919 138.115 233.673 149.303 233.673 C 150.537 233.673 151.746 233.575 152.94 233.431 C 155.319 232.992 161.27 231.482 165.129 227.045 C 165.347 226.794 165.524 226.591 165.707 226.389 C 167.706 223.917 169.709 220.61 170.859 216.558 C 170.859 216.549 170.864 216.539 170.869 216.534 C 170.903 216.415 170.953 216.307 170.982 216.188 L 170.943 216.169 C 170.987 215.981 171.056 215.803 171.056 215.606 C 171.056 214.264 169.971 213.178 168.628 213.178 C 167.814 213.178 167.123 213.607 166.684 214.224 L 166.645 214.175 C 162.746 219.539 156.434 223.043 149.303 223.043 C 137.464 223.043 127.83 213.41 127.83 201.566 L 127.83 180.093 L 149.303 180.093 C 157.766 180.093 165.08 185.028 168.574 192.155 C 173.638 200.914 174.422 208.47 173.248 214.634 L 173.307 214.654 C 173.262 214.836 173.193 215.014 173.193 215.211 C 173.193 216.554 174.279 217.639 175.621 217.639 C 176.589 217.639 177.413 217.062 177.803 216.238 L 177.822 216.238 C 180.107 211.845 181.41 206.861 181.41 201.566 C 181.41 190.383 175.656 180.528 166.955 174.773" style="fill: rgb(61, 88, 118);"/>
</svg>