<?xml version="1.0" encoding="utf-8"?>
<!-- Generator: Adobe Illustrator 27.3.1, SVG Export Plug-In . SVG Version: 6.00 Build 0)  -->
<svg version="1.1" id="Layer_1" xmlns="http://www.w3.org/2000/svg" xmlns:xlink="http://www.w3.org/1999/xlink" x="0px" y="0px"
	 viewBox="0 0 792 612" style="enable-background:new 0 0 792 612;" xml:space="preserve">
<style type="text/css">
	.st0{fill:#3D5876;}
</style>
<g>
	<g>
		<path class="st0" d="M396,106.85c10.56,0,19.12-8.56,19.12-19.12c0-10.56-8.56-19.12-19.12-19.12c-10.56,0-19.12,8.56-19.12,19.12
			C376.88,98.29,385.44,106.85,396,106.85"/>
		<path class="st0" d="M396,327.85c-10.56,0-19.12,8.56-19.12,19.12c0,10.56,8.56,19.12,19.12,19.12c10.56,0,19.12-8.56,19.12-19.12
			C415.12,336.42,406.56,327.85,396,327.85"/>
		<path class="st0" d="M525.62,198.23c-10.56,0-19.12,8.56-19.12,19.12c0,10.56,8.56,19.12,19.12,19.12s19.12-8.56,19.12-19.12
			C544.75,206.79,536.19,198.23,525.62,198.23"/>
		<path class="st0" d="M285.5,217.35c0-10.56-8.56-19.12-19.12-19.12c-10.56,0-19.12,8.56-19.12,19.12
			c0,10.56,8.56,19.12,19.12,19.12C276.94,236.48,285.5,227.92,285.5,217.35"/>
		<path class="st0" d="M484.81,217.36L484.81,217.36L484.81,217.36c17.38-11.49,28.88-31.19,28.88-53.54
			c0-10.58-2.61-20.54-7.17-29.33l-0.04,0.01c-0.78-1.64-2.42-2.8-4.36-2.8c-2.68,0-4.85,2.17-4.85,4.85c0,0.39,0.14,0.75,0.22,1.11
			l-0.11,0.04c2.34,12.32,0.77,27.42-9.34,44.92c-6.99,14.25-21.6,24.11-38.51,24.11h-42.91v-42.91c0-23.66,19.25-42.91,42.91-42.91
			c14.24,0,26.85,7,34.65,17.72l0.07-0.1c0.88,1.23,2.25,2.09,3.88,2.09c2.68,0,4.85-2.17,4.85-4.85c0-0.4-0.14-0.76-0.23-1.13
			l0.08-0.04c-0.06-0.24-0.16-0.45-0.23-0.68c-0.01-0.02-0.01-0.04-0.02-0.06c-2.29-8.09-6.3-14.71-10.29-19.65
			c-0.36-0.41-0.72-0.81-1.16-1.32c-7.7-8.87-19.59-11.88-24.35-12.76c-2.39-0.28-4.8-0.48-7.26-0.48h0
			c-22.35,0-42.04,11.5-53.54,28.88c-11.49-17.38-31.18-28.88-53.54-28.88h0c-2.46,0-4.87,0.19-7.26,0.48
			c-4.75,0.89-16.65,3.9-24.35,12.76c-0.44,0.51-0.79,0.91-1.16,1.32c-4,4.94-8,11.55-10.29,19.65c-0.01,0.02-0.01,0.04-0.02,0.06
			c-0.07,0.24-0.17,0.44-0.23,0.68l0.08,0.04c-0.09,0.37-0.23,0.73-0.23,1.13c0,2.68,2.17,4.85,4.85,4.85c1.63,0,3-0.85,3.88-2.09
			l0.07,0.1c7.8-10.72,20.4-17.72,34.65-17.72c23.66,0,42.91,19.25,42.91,42.91v42.91h-42.91c-16.91,0-31.52-9.86-38.51-24.11
			c-10.12-17.5-11.69-32.6-9.34-44.92l-0.11-0.04c0.09-0.37,0.22-0.72,0.22-1.11c0-2.68-2.17-4.85-4.85-4.85
			c-1.94,0-3.58,1.16-4.36,2.8l-0.04-0.01c-4.56,8.79-7.17,18.75-7.17,29.33c0,22.35,11.51,42.04,28.88,53.54v0
			c-17.38,11.49-28.88,31.18-28.88,53.54c0,10.58,2.61,20.54,7.17,29.33l0.04-0.01c0.78,1.64,2.42,2.8,4.36,2.8
			c2.68,0,4.85-2.17,4.85-4.85c0-0.4-0.14-0.75-0.22-1.11l0.11-0.04c-2.35-12.33-0.77-27.42,9.34-44.92
			c6.99-14.25,21.6-24.1,38.51-24.1h42.91v42.91c0,23.66-19.25,42.91-42.91,42.91c-14.24,0-26.85-7-34.65-17.72l-0.07,0.1
			c-0.88-1.23-2.25-2.09-3.88-2.09c-2.68,0-4.85,2.17-4.85,4.85c0,0.4,0.14,0.76,0.23,1.13l-0.08,0.04
			c0.06,0.24,0.16,0.45,0.23,0.69c0.01,0.02,0.01,0.04,0.02,0.05c2.29,8.09,6.3,14.71,10.29,19.65c0.36,0.41,0.72,0.81,1.16,1.32
			c7.7,8.87,19.6,11.88,24.35,12.76c2.39,0.28,4.8,0.48,7.26,0.48h0c22.35,0,42.04-11.51,53.54-28.89
			c11.49,17.38,31.18,28.89,53.54,28.89h0c2.46,0,4.88-0.2,7.26-0.48c4.76-0.89,16.65-3.9,24.35-12.76
			c0.44-0.51,0.79-0.91,1.16-1.32c3.99-4.94,8-11.56,10.29-19.65c0.01-0.02,0.01-0.04,0.02-0.05c0.07-0.24,0.17-0.45,0.23-0.69
			l-0.08-0.04c0.09-0.37,0.23-0.73,0.23-1.13c0-2.68-2.17-4.85-4.85-4.85c-1.63,0-3,0.86-3.88,2.09l-0.07-0.1
			c-7.8,10.72-20.4,17.72-34.65,17.72c-23.66,0-42.91-19.25-42.91-42.91v-42.91h42.91c16.91,0,31.52,9.86,38.51,24.1
			c10.12,17.5,11.68,32.6,9.34,44.92l0.11,0.04c-0.09,0.37-0.22,0.72-0.22,1.11c0,2.68,2.17,4.85,4.85,4.85
			c1.94,0,3.58-1.16,4.36-2.8l0.04,0.01c4.56-8.79,7.17-18.75,7.17-29.33C513.7,248.54,502.19,228.85,484.81,217.36"/>
	</g>
	<g>
		<g>
			<g>
				<polygon class="st0" points="245.16,419.04 249.98,419.04 249.98,433.81 268.42,433.81 268.42,419.04 273.24,419.04 
					273.24,454.6 268.42,454.6 268.42,438.33 249.98,438.33 249.98,454.6 245.16,454.6 				"/>
				<path class="st0" d="M308.74,455.5c-2.71,0-5.21-0.48-7.48-1.43c-2.28-0.95-4.23-2.27-5.85-3.94c-1.62-1.68-2.9-3.65-3.82-5.93
					c-0.92-2.28-1.38-4.74-1.38-7.38s0.46-5.11,1.38-7.38c0.92-2.27,2.19-4.25,3.82-5.92c1.63-1.68,3.57-2.99,5.85-3.94
					c2.27-0.95,4.77-1.43,7.48-1.43c2.71,0,5.21,0.48,7.48,1.43c2.27,0.96,4.23,2.27,5.85,3.94c1.62,1.67,2.9,3.65,3.82,5.92
					c0.92,2.28,1.38,4.74,1.38,7.38s-0.46,5.11-1.38,7.38s-2.19,4.25-3.82,5.93c-1.62,1.67-3.58,2.99-5.85,3.94
					C313.95,455.02,311.45,455.5,308.74,455.5 M308.74,450.98c2.04,0,3.88-0.38,5.52-1.13c1.64-0.75,3.04-1.76,4.22-3.04
					c1.17-1.27,2.08-2.77,2.71-4.5c0.64-1.72,0.95-3.56,0.95-5.5c0-1.94-0.32-3.78-0.95-5.5c-0.64-1.72-1.54-3.22-2.71-4.5
					c-1.17-1.27-2.58-2.28-4.22-3.04c-1.64-0.75-3.48-1.13-5.52-1.13c-2.04,0-3.89,0.38-5.53,1.13c-1.64,0.75-3.04,1.77-4.22,3.04
					c-1.17,1.27-2.08,2.77-2.71,4.5c-0.64,1.72-0.95,3.56-0.95,5.5c0,1.94,0.32,3.77,0.95,5.5c0.64,1.73,1.54,3.22,2.71,4.5
					c1.17,1.27,2.58,2.28,4.22,3.04C304.86,450.6,306.7,450.98,308.74,450.98"/>
				<path class="st0" d="M345.3,447.16c0.87,1.31,1.98,2.27,3.34,2.89c1.36,0.62,2.75,0.93,4.19,0.93c0.8,0,1.62-0.13,2.46-0.38
					c0.83-0.25,1.6-0.62,2.28-1.13c0.69-0.5,1.25-1.12,1.68-1.86c0.44-0.73,0.65-1.59,0.65-2.56c0-1.37-0.43-2.42-1.31-3.14
					c-0.87-0.72-1.95-1.32-3.24-1.81s-2.7-0.95-4.22-1.41c-1.52-0.45-2.93-1.08-4.22-1.88s-2.37-1.88-3.24-3.24
					c-0.87-1.36-1.31-3.19-1.31-5.5c0-1.04,0.23-2.14,0.68-3.31s1.16-2.25,2.13-3.22c0.97-0.97,2.22-1.78,3.74-2.44
					c1.53-0.65,3.36-0.98,5.5-0.98c1.94,0,3.8,0.27,5.57,0.8c1.78,0.54,3.33,1.63,4.67,3.26l-3.91,3.57
					c-0.6-0.94-1.46-1.69-2.56-2.26c-1.1-0.57-2.36-0.85-3.77-0.85c-1.34,0-2.45,0.18-3.34,0.53c-0.89,0.35-1.6,0.8-2.14,1.36
					c-0.53,0.55-0.91,1.15-1.13,1.78c-0.22,0.64-0.33,1.22-0.33,1.76c0,1.5,0.43,2.66,1.31,3.47c0.87,0.8,1.95,1.45,3.24,1.96
					c1.29,0.5,2.7,0.96,4.22,1.36c1.52,0.4,2.93,0.96,4.22,1.68c1.29,0.72,2.37,1.69,3.24,2.91c0.87,1.22,1.31,2.9,1.31,5.05
					c0,1.71-0.33,3.25-0.98,4.62c-0.65,1.38-1.53,2.53-2.64,3.47c-1.1,0.94-2.41,1.65-3.91,2.16c-1.51,0.5-3.11,0.75-4.82,0.75
					c-2.28,0-4.44-0.4-6.48-1.21c-2.04-0.8-3.67-2.04-4.87-3.71L345.3,447.16z"/>
				<path class="st0" d="M382.21,419.04h12.5c2.28,0,4.15,0.31,5.62,0.93c1.47,0.62,2.64,1.41,3.49,2.36
					c0.86,0.95,1.45,2.03,1.79,3.21c0.33,1.19,0.5,2.34,0.5,3.44c0,1.1-0.17,2.25-0.5,3.44c-0.34,1.19-0.93,2.26-1.79,3.21
					c-0.85,0.95-2.02,1.74-3.49,2.36c-1.47,0.62-3.35,0.93-5.62,0.93h-7.68v15.67h-4.82V419.04z M387.04,434.71h6.33
					c0.94,0,1.87-0.07,2.79-0.22c0.92-0.15,1.74-0.43,2.46-0.83c0.72-0.4,1.3-0.98,1.73-1.73c0.44-0.75,0.65-1.73,0.65-2.94
					c0-1.2-0.22-2.18-0.65-2.94c-0.44-0.76-1.01-1.33-1.73-1.73c-0.72-0.4-1.54-0.68-2.46-0.83c-0.92-0.15-1.85-0.22-2.79-0.22
					h-6.33V434.71z"/>
				<rect x="422.04" y="419.04" class="st0" width="4.82" height="35.56"/>
				<polygon class="st0" points="453.48,423.56 442.03,423.56 442.03,419.04 469.75,419.04 469.75,423.56 458.3,423.56 458.3,454.6 
					453.48,454.6 				"/>
				<path class="st0" d="M491.45,419.04h4.37l15.21,35.56h-5.62l-3.57-8.79h-16.92l-3.52,8.79h-5.62L491.45,419.04z M500.08,441.59
					l-6.63-16.32h-0.1l-6.73,16.32H500.08z"/>
				<polygon class="st0" points="525.69,419.04 530.51,419.04 530.51,450.08 546.84,450.08 546.84,454.6 525.69,454.6 				"/>
			</g>
			<g>
				<path class="st0" d="M226.85,500.68c0.87,1.31,1.98,2.27,3.34,2.89c1.36,0.62,2.75,0.93,4.19,0.93c0.8,0,1.62-0.13,2.46-0.38
					c0.83-0.25,1.6-0.62,2.28-1.13c0.69-0.5,1.25-1.12,1.68-1.86c0.44-0.73,0.65-1.59,0.65-2.56c0-1.37-0.43-2.42-1.31-3.14
					c-0.87-0.72-1.95-1.32-3.24-1.81s-2.7-0.95-4.22-1.41c-1.52-0.45-2.93-1.08-4.22-1.88c-1.29-0.8-2.37-1.88-3.24-3.24
					c-0.87-1.36-1.31-3.19-1.31-5.5c0-1.04,0.23-2.14,0.68-3.31c0.45-1.17,1.16-2.25,2.13-3.22c0.97-0.97,2.22-1.78,3.74-2.44
					c1.53-0.65,3.36-0.98,5.5-0.98c1.94,0,3.8,0.27,5.57,0.8c1.78,0.54,3.33,1.63,4.67,3.26l-3.91,3.57
					c-0.6-0.94-1.46-1.69-2.56-2.26c-1.1-0.57-2.36-0.85-3.77-0.85c-1.34,0-2.45,0.18-3.34,0.53s-1.6,0.8-2.14,1.36
					c-0.53,0.55-0.91,1.15-1.13,1.78c-0.22,0.64-0.33,1.22-0.33,1.76c0,1.5,0.43,2.66,1.31,3.47c0.87,0.8,1.95,1.45,3.24,1.96
					c1.29,0.5,2.7,0.96,4.22,1.36c1.52,0.4,2.93,0.96,4.22,1.68c1.29,0.72,2.37,1.69,3.24,2.91c0.87,1.22,1.31,2.9,1.31,5.05
					c0,1.71-0.33,3.25-0.98,4.62c-0.65,1.38-1.53,2.53-2.64,3.47c-1.1,0.94-2.41,1.65-3.91,2.16c-1.51,0.5-3.11,0.75-4.82,0.75
					c-2.28,0-4.44-0.4-6.48-1.21c-2.04-0.8-3.67-2.04-4.87-3.71L226.85,500.68z"/>
				<path class="st0" d="M274.92,472.55h4.37l15.21,35.56h-5.62l-3.57-8.79h-16.92l-3.52,8.79h-5.62L274.92,472.55z M283.55,495.1
					l-6.63-16.32h-0.1l-6.73,16.32H283.55z"/>
				<polygon class="st0" points="309.17,472.55 315.49,472.55 335.08,501.78 335.18,501.78 335.18,472.55 340,472.55 340,508.11 
					333.88,508.11 314.09,478.88 313.99,478.88 313.99,508.11 309.17,508.11 				"/>
				<path class="st0" d="M372.34,472.55h12.4c2.51,0,4.71,0.29,6.61,0.86c1.89,0.57,3.53,1.33,4.92,2.28
					c1.39,0.95,2.55,2.05,3.47,3.29c0.92,1.24,1.65,2.51,2.19,3.82c0.53,1.31,0.92,2.61,1.15,3.91c0.23,1.31,0.35,2.51,0.35,3.62
					c0,2.28-0.42,4.48-1.26,6.6c-0.84,2.13-2.08,4.02-3.72,5.67c-1.64,1.66-3.68,2.99-6.1,3.99c-2.43,1-5.23,1.51-8.41,1.51h-11.6
					V472.55z M377.16,503.59h6.08c2.04,0,3.97-0.28,5.8-0.83c1.82-0.55,3.42-1.38,4.8-2.49c1.37-1.1,2.46-2.48,3.26-4.14
					c0.8-1.66,1.21-3.59,1.21-5.8c0-1.14-0.18-2.47-0.55-3.99c-0.37-1.52-1.06-2.97-2.09-4.34c-1.02-1.37-2.43-2.54-4.24-3.49
					c-1.81-0.95-4.15-1.43-7.03-1.43h-7.23V503.59z"/>
				<rect x="420.41" y="472.55" class="st0" width="4.82" height="35.56"/>
				<polygon class="st0" points="444.41,472.55 467.36,472.55 467.36,477.08 449.23,477.08 449.23,487.67 466.11,487.67 
					466.11,492.19 449.23,492.19 449.23,503.59 468.27,503.59 468.27,508.11 444.41,508.11 				"/>
				<path class="st0" d="M515.42,488.22v17.53c-0.87,0.54-1.86,1-2.96,1.41c-1.1,0.4-2.25,0.75-3.44,1.03
					c-1.19,0.28-2.39,0.5-3.61,0.63c-1.22,0.13-2.37,0.2-3.44,0.2c-3.02,0-5.7-0.5-8.06-1.51c-2.36-1-4.35-2.36-5.98-4.07
					c-1.62-1.71-2.86-3.69-3.72-5.95c-0.85-2.26-1.28-4.64-1.28-7.16c0-2.65,0.46-5.11,1.38-7.38c0.92-2.27,2.19-4.25,3.82-5.93
					c1.63-1.67,3.57-2.99,5.85-3.94c2.27-0.95,4.77-1.43,7.48-1.43c3.28,0,5.96,0.41,8.03,1.23c2.08,0.82,3.82,1.95,5.23,3.39
					l-3.42,3.67c-1.47-1.41-3.03-2.38-4.67-2.94c-1.64-0.55-3.36-0.83-5.17-0.83c-2.04,0-3.89,0.38-5.52,1.13
					c-1.64,0.75-3.05,1.77-4.22,3.04c-1.17,1.27-2.08,2.77-2.71,4.5c-0.64,1.72-0.95,3.56-0.95,5.5c0,2.01,0.35,3.87,1.05,5.6
					c0.7,1.72,1.67,3.22,2.91,4.5c1.24,1.27,2.7,2.27,4.37,2.99c1.67,0.72,3.5,1.08,5.47,1.08c1.71,0,3.32-0.16,4.85-0.48
					c1.52-0.32,2.82-0.78,3.89-1.38v-9.89h-7.88v-4.52H515.42z"/>
				<path class="st0" d="M550.58,509.01c-2.71,0-5.21-0.48-7.48-1.43c-2.28-0.95-4.23-2.27-5.85-3.94c-1.62-1.68-2.9-3.65-3.82-5.93
					c-0.92-2.28-1.38-4.74-1.38-7.38c0-2.64,0.46-5.11,1.38-7.38c0.92-2.27,2.19-4.25,3.82-5.92c1.63-1.68,3.57-2.99,5.85-3.94
					c2.27-0.95,4.77-1.43,7.48-1.43c2.71,0,5.21,0.48,7.48,1.43c2.27,0.96,4.23,2.27,5.85,3.94c1.62,1.67,2.9,3.65,3.82,5.92
					c0.92,2.28,1.38,4.74,1.38,7.38c0,2.64-0.46,5.11-1.38,7.38c-0.92,2.28-2.19,4.25-3.82,5.93c-1.62,1.67-3.58,2.99-5.85,3.94
					C555.78,508.54,553.29,509.01,550.58,509.01 M550.58,504.49c2.04,0,3.88-0.38,5.52-1.13c1.64-0.75,3.04-1.76,4.22-3.04
					c1.17-1.27,2.08-2.77,2.71-4.5c0.64-1.72,0.95-3.56,0.95-5.5c0-1.94-0.32-3.78-0.95-5.5c-0.64-1.72-1.54-3.22-2.71-4.5
					c-1.17-1.27-2.58-2.28-4.22-3.04c-1.64-0.75-3.48-1.13-5.52-1.13c-2.04,0-3.89,0.38-5.53,1.13c-1.64,0.75-3.04,1.77-4.22,3.04
					c-1.17,1.27-2.08,2.77-2.71,4.5c-0.64,1.72-0.95,3.56-0.95,5.5c0,1.94,0.32,3.77,0.95,5.5c0.64,1.73,1.54,3.22,2.71,4.5
					c1.17,1.27,2.58,2.28,4.22,3.04C546.69,504.12,548.54,504.49,550.58,504.49"/>
			</g>
		</g>
		<g>
			<path class="st0" d="M244.12,528.97h4.67c0.87,0,1.75,0.15,2.63,0.44c0.88,0.29,1.68,0.73,2.38,1.32
				c0.71,0.59,1.28,1.32,1.72,2.21c0.44,0.88,0.66,1.9,0.66,3.07c0,1.18-0.22,2.2-0.66,3.08c-0.44,0.87-1.01,1.61-1.72,2.2
				c-0.71,0.59-1.5,1.03-2.38,1.32c-0.88,0.29-1.76,0.44-2.63,0.44h-4.67V528.97z M245.55,541.72h2.78c1.07,0,2-0.16,2.79-0.49
				c0.79-0.32,1.44-0.75,1.97-1.29c0.52-0.54,0.91-1.15,1.16-1.83c0.25-0.68,0.38-1.39,0.38-2.12c0-0.73-0.13-1.43-0.38-2.12
				c-0.25-0.68-0.64-1.29-1.16-1.83c-0.52-0.54-1.18-0.97-1.97-1.29c-0.79-0.32-1.72-0.49-2.79-0.49h-2.78V541.72z"/>
			<path class="st0" d="M285.31,541.72h7.53v1.31h-8.96v-14.07h8.72v1.31h-7.29v4.79h6.82v1.31h-6.82V541.72z"/>
			<path class="st0" d="M350.62,543.03h-1.67l6.12-14.07h1.39l6.12,14.07h-1.67l-1.55-3.7h-7.19L350.62,543.03z M352.71,538.03h6.1
				l-3.04-7.39L352.71,538.03z"/>
			<path class="st0" d="M390.75,541.72h6.56v1.31h-7.99v-14.07h1.43V541.72z"/>
			<path class="st0" d="M435.68,540.81c-0.24,0.36-0.53,0.7-0.88,1.01c-0.35,0.32-0.75,0.59-1.2,0.83
				c-0.45,0.23-0.94,0.41-1.46,0.55c-0.52,0.13-1.08,0.2-1.66,0.2c-1.05,0-2.02-0.19-2.91-0.56c-0.89-0.37-1.67-0.88-2.33-1.54
				c-0.66-0.66-1.17-1.43-1.54-2.33c-0.37-0.9-0.56-1.89-0.56-2.96c0-1.07,0.18-2.06,0.56-2.96c0.37-0.9,0.88-1.68,1.54-2.33
				c0.66-0.66,1.43-1.17,2.33-1.54c0.89-0.37,1.86-0.56,2.91-0.56c0.87,0,1.75,0.17,2.62,0.52c0.87,0.34,1.62,0.91,2.25,1.71
				l-1.25,0.93c-0.15-0.22-0.34-0.45-0.6-0.68c-0.25-0.22-0.54-0.42-0.86-0.6c-0.32-0.17-0.67-0.31-1.04-0.42
				c-0.37-0.11-0.74-0.16-1.11-0.16c-0.9,0-1.71,0.17-2.42,0.5c-0.72,0.33-1.32,0.78-1.82,1.33c-0.5,0.56-0.88,1.2-1.14,1.94
				c-0.27,0.74-0.4,1.51-0.4,2.32c0,0.81,0.13,1.58,0.4,2.31c0.26,0.74,0.65,1.38,1.14,1.94c0.5,0.56,1.1,1,1.82,1.33
				c0.71,0.33,1.52,0.5,2.42,0.5c0.37,0,0.74-0.03,1.1-0.1c0.36-0.07,0.72-0.18,1.07-0.34c0.35-0.16,0.68-0.37,0.99-0.65
				c0.31-0.27,0.6-0.61,0.86-1.02L435.68,540.81z"/>
			<path class="st0" d="M462.68,543.03h-1.67l6.12-14.07h1.39l6.12,14.07h-1.67l-1.55-3.7h-7.19L462.68,543.03z M464.77,538.03h6.1
				l-3.04-7.39L464.77,538.03z"/>
			<path class="st0" d="M502.82,541.72h6.56v1.31h-7.99v-14.07h1.43V541.72z"/>
			<path class="st0" d="M535.92,543.03h-1.67l6.12-14.07h1.39l6.12,14.07h-1.67l-1.55-3.7h-7.19L535.92,543.03z M538,538.03h6.1
				l-3.04-7.39L538,538.03z M541.02,528.35h-1.17l1.99-2.86h1.81L541.02,528.35z"/>
		</g>
	</g>
</g>
</svg>
