<svg width="302" height="302" xmlns="http://www.w3.org/2000/svg">
 <g>
  <title>Layer 1</title>
  <path class="b" d="m150.83,38.78c10.71,0 19.39,-8.68 19.39,-19.39s-8.68,-19.39 -19.39,-19.39s-19.39,8.68 -19.39,19.39s8.68,19.39 19.39,19.39" fill="#f6c695" id="svg_25"/>
  <path class="b" d="m150.83,262.88c-10.71,0 -19.39,8.68 -19.39,19.39s8.68,19.39 19.39,19.39s19.39,-8.68 19.39,-19.39s-8.68,-19.39 -19.39,-19.39" fill="#f6c695" id="svg_26"/>
  <path class="b" d="m282.28,131.44c-10.71,0 -19.39,8.68 -19.39,19.39s8.68,19.39 19.39,19.39s19.39,-8.68 19.39,-19.39s-8.68,-19.39 -19.39,-19.39" fill="#f6c695" id="svg_27"/>
  <path class="b" d="m38.78,150.83c0,-10.71 -8.68,-19.39 -19.39,-19.39s-19.39,8.68 -19.39,19.39s8.68,19.39 19.39,19.39s19.39,-8.68 19.39,-19.39" fill="#f6c695" id="svg_28"/>
  <path class="b" d="m240.9,150.83l0,0c17.63,-11.65 29.29,-31.63 29.29,-54.29c0,-10.73 -2.64,-20.83 -7.27,-29.75l-0.04,0.02c-0.78,-1.67 -2.45,-2.84 -4.42,-2.84c-2.72,0 -4.92,2.2 -4.92,4.92c0,0.4 0.14,0.76 0.23,1.13l-0.12,0.04c2.38,12.5 0.79,27.8 -9.47,45.55c-7.09,14.45 -21.91,24.44 -39.05,24.44l-43.51,0l0,-43.52c0,-23.99 19.52,-43.51 43.51,-43.51c14.45,0 27.23,7.1 35.14,17.97l0.08,-0.1c0.89,1.25 2.28,2.11 3.94,2.11c2.72,0 4.92,-2.2 4.92,-4.92c0,-0.41 -0.14,-0.77 -0.23,-1.14l0.08,-0.04c-0.06,-0.25 -0.16,-0.46 -0.23,-0.7c0,-0.02 -0.01,-0.03 -0.02,-0.05c-2.33,-8.21 -6.39,-14.91 -10.44,-19.93c-0.37,-0.41 -0.72,-0.82 -1.17,-1.33c-7.82,-8.99 -19.87,-12.04 -24.7,-12.94c-2.42,-0.29 -4.87,-0.48 -7.37,-0.48c-22.66,0 -42.64,11.66 -54.29,29.29c-11.65,-17.63 -31.63,-29.29 -54.29,-29.29c-2.5,0 -4.95,0.2 -7.37,0.48c-4.82,0.9 -16.88,3.95 -24.69,12.94c-0.45,0.52 -0.81,0.92 -1.17,1.33c-4.05,5.01 -8.11,11.72 -10.44,19.93c0,0.02 -0.01,0.04 -0.02,0.05c-0.07,0.24 -0.17,0.45 -0.23,0.7l0.08,0.04c-0.09,0.37 -0.23,0.74 -0.23,1.14c0,2.72 2.2,4.92 4.92,4.92c1.65,0 3.04,-0.87 3.93,-2.11l0.08,0.1c7.9,-10.87 20.69,-17.97 35.14,-17.97c23.99,0 43.52,19.52 43.52,43.51l0,43.52l-43.52,0c-17.15,0 -31.97,-10 -39.05,-24.44c-10.25,-17.75 -11.85,-33.06 -9.47,-45.55l-0.12,-0.04c0.09,-0.37 0.23,-0.72 0.23,-1.13c0,-2.72 -2.2,-4.92 -4.92,-4.92c-1.97,0 -3.63,1.17 -4.42,2.84l-0.04,-0.02c-4.62,8.92 -7.27,19.02 -7.27,29.75c0,22.66 11.66,42.64 29.29,54.29c-17.63,11.65 -29.29,31.62 -29.29,54.29c0,10.73 2.65,20.83 7.27,29.75l0.04,0c0.79,1.66 2.46,2.83 4.42,2.83c2.72,0 4.92,-2.2 4.92,-4.92c0,-0.4 -0.14,-0.76 -0.23,-1.13l0.12,-0.04c-2.38,-12.5 -0.78,-27.81 9.47,-45.55c7.09,-14.45 21.91,-24.44 39.05,-24.44l43.52,0l0,43.51c0,24 -19.52,43.52 -43.52,43.52c-14.45,0 -27.23,-7.1 -35.14,-17.97l-0.08,0.1c-0.89,-1.25 -2.28,-2.12 -3.93,-2.12c-2.72,0 -4.92,2.21 -4.92,4.92c0,0.41 0.14,0.76 0.23,1.14l-0.08,0.04c0.06,0.24 0.16,0.46 0.23,0.7c0,0.02 0.01,0.03 0.02,0.05c2.33,8.21 6.39,14.91 10.44,19.92c0.37,0.42 0.72,0.82 1.17,1.33c7.81,9 19.87,12.05 24.69,12.94c2.42,0.29 4.87,0.49 7.37,0.49c22.66,0 42.64,-11.67 54.29,-29.29c11.65,17.63 31.62,29.29 54.29,29.29c2.5,0 4.95,-0.2 7.37,-0.49c4.82,-0.89 16.88,-3.95 24.7,-12.94c0.44,-0.51 0.8,-0.92 1.17,-1.33c4.05,-5.01 8.11,-11.71 10.44,-19.92c0,-0.02 0.01,-0.04 0.02,-0.05c0.07,-0.24 0.17,-0.46 0.23,-0.7l-0.08,-0.04c0.09,-0.38 0.23,-0.74 0.23,-1.14c0,-2.72 -2.2,-4.92 -4.92,-4.92c-1.65,0 -3.05,0.87 -3.94,2.12l-0.08,-0.1c-7.9,10.87 -20.69,17.97 -35.14,17.97c-23.99,0 -43.51,-19.52 -43.51,-43.52l0,-43.51l43.51,0c17.15,0 31.97,10 39.05,24.44c10.26,17.75 11.85,33.06 9.47,45.55l0.12,0.04c-0.09,0.37 -0.23,0.73 -0.23,1.13c0,2.72 2.2,4.92 4.92,4.92c1.96,0 3.63,-1.17 4.42,-2.84l0.04,0c4.63,-8.9 7.27,-19 7.27,-29.73c0,-22.66 -11.66,-42.63 -29.29,-54.29" fill="#f6c695" id="svg_29"/>
 </g>

</svg>